<svg width="0" height="0">
  <symbol enable-background="new 0 0 24 24" id="avengers" version="1.1" xml:space="preserve" xmlns="http://www.w3.org/2000/svg" xmlns:xlink="http://www.w3.org/1999/xlink" viewBox="0 0 24 24">
    <path d="M17,3.1962891V0.5C17,0.2236328,16.7763672,0,16.5,0h-3  c-0.1923828,0-0.3681641,0.1103516-0.4511719,0.2841797l-0.8193359,1.7133789c-0.019043,0-0.0385742,0.0004883-0.0571289,0.0004883  L12,2C5.9345703,2,1,6.9345703,1,13c0,1.8789063,0.4882813,3.7402344,1.4116211,5.3828125  c0.0913086,0.1621094,0.269043,0.2592773,0.4526367,0.2543945c0.1865234-0.0058594,0.3540039-0.1152344,0.4345703-0.2836914  l1.1269531-2.3564453c0.0566406-0.1186523,0.0644531-0.2553711,0.0214844-0.3793945C4.1503906,14.7612305,4,13.8803711,4,13  c0-3.9750977,2.9018555-7.2963867,6.75-7.9082031L2.0488281,23.2841797  c-0.0742188,0.1547852-0.0634766,0.3369141,0.0283203,0.4824219C2.168457,23.9121094,2.328125,24,2.5,24h3  c0.2001953,0,0.3808594-0.1191406,0.4594727-0.3032227L8.8295898,17H13.5v0.5c0,0.1923828,0.1103516,0.3671875,0.2832031,0.4506836  c0.1738281,0.0839844,0.3789063,0.0595703,0.5292921-0.0600586l2.499999-2C16.9311523,15.7954102,17,15.6518555,17,15.5  s-0.0688477-0.2954102-0.1875057-0.390625l-2.499999-2c-0.1508741-0.1206055-0.3574171-0.1445313-0.5292921-0.0600586  C13.6103516,13.1328125,13.5,13.3076172,13.5,13.5V14h-3.2265625L13.5,6.8295898V11.5  c0,0.1518555,0.0688477,0.2954102,0.1874952,0.390625l2.499999,2c0.1494198,0.1201172,0.3559628,0.1430664,0.5293026,0.0600586  C16.8896484,13.8671875,17,13.6923828,17,13.5V6.7695313C18.894043,8.2890625,20,10.5571289,20,13  c0,2.5196533-1.1737061,4.7675171-3,6.2350464V17.5c0-0.1923828-0.1103516-0.3671875-0.2832031-0.4506836  c-0.1738281-0.0834961-0.3793945-0.0600586-0.5293026,0.0600586l-2.499999,2  c-0.1655226,0.1328125-0.2294874,0.355957-0.1591749,0.5561523S13.7875977,20,14,20h1.8643799  C14.7178345,20.6355591,13.4011841,21,12,21c-1.0332031,0-2.0458984-0.1987305-3.0097656-0.5908203  c-0.2519531-0.1005859-0.5405273,0.0161133-0.6479492,0.2666016l-0.7880859,1.8393555  C7.5014648,22.6381836,7.5,22.7773438,7.5507813,22.9008789c0.0507813,0.1240234,0.1489258,0.2226563,0.2729492,0.2734375  C9.15625,23.722168,10.5615234,24,12,24c6.0654297,0,11-4.9345703,11-11C23,8.8925781,20.6552734,5.0791016,17,3.1962891z"></path>
    <g></g>
    <g></g>
    <g></g>
    <g></g>
    <g></g>
    <g></g>
    <g></g>
    <g></g>
    <g></g>
    <g></g>
    <g></g>
    <g></g>
    <g></g>
    <g></g>
    <g></g>
  </symbol>

    <symbol xmlns="http://www.w3.org/2000/svg" viewBox="0 0 24 24" id="search">
    <path d="M21 21L15 15M17 10C17 13.866 13.866 17 10 17C6.13401 17 3 13.866 3 10C3 6.13401 6.13401 3 10 3C13.866 3 17 6.13401 17 10Z" stroke-width="2" stroke-linecap="round" stroke-linejoin="round"></path>
  </symbol>

  <symbol xmlns="http://www.w3.org/2000/svg" viewBox="0 0 512 512" id="moon">
    <path d="M268.279,496c-67.574,0-130.978-26.191-178.534-73.745S16,311.293,16,243.718A252.252,252.252,0,0,1,154.183,18.676a24.44,24.44,0,0,1,34.46,28.958,220.12,220.12,0,0,0,54.8,220.923A218.746,218.746,0,0,0,399.085,333.2h0a220.2,220.2,0,0,0,65.277-9.846,24.439,24.439,0,0,1,28.959,34.461A252.256,252.256,0,0,1,268.279,496ZM153.31,55.781A219.3,219.3,0,0,0,48,243.718C48,365.181,146.816,464,268.279,464a219.3,219.3,0,0,0,187.938-105.31,252.912,252.912,0,0,1-57.13,6.513h0a250.539,250.539,0,0,1-178.268-74.016,252.147,252.147,0,0,1-67.509-235.4Z"></path>
  </symbol>

  <symbol version="1.1" id="sun" xmlns="http://www.w3.org/2000/svg" xmlns:xlink="http://www.w3.org/1999/xlink" x="0px" y="0px" xml:space="preserve" viewBox="0 0 612 612">

    <g>

      <g id="_x37__5_">

        <g>

          <path d="M76.5,286.875H19.125C8.568,286.875,0,295.443,0,306c0,10.557,8.568,19.125,19.125,19.125H76.5

				c10.557,0,19.125-8.568,19.125-19.125C95.625,295.443,87.057,286.875,76.5,286.875z M306,95.625

				c10.557,0,19.125-8.568,19.125-19.125V19.125C325.125,8.568,316.557,0,306,0c-10.557,0-19.125,8.568-19.125,19.125V76.5

				C286.875,87.057,295.443,95.625,306,95.625z M490.002,148.792l40.182-40.182c7.401-7.401,7.401-19.393,0-26.794

				s-19.394-7.401-26.795,0l-40.182,40.182c-7.401,7.401-7.401,19.393,0,26.794C470.609,156.194,482.601,156.194,490.002,148.792z

				 M141.716,443.509l-40.182,40.182c-7.401,7.401-7.401,19.393,0,26.794s19.393,7.401,26.794,0l40.182-40.182

				c7.401-7.401,7.401-19.393,0-26.794S149.118,436.107,141.716,443.509z M130.203,157.246c7.478,7.478,19.584,7.478,27.042,0

				c7.459-7.478,7.459-19.584,0-27.042L116.682,89.62c-7.478-7.478-19.584-7.478-27.043,0c-7.478,7.478-7.478,19.584,0,27.043

				L130.203,157.246z M306,516.375c-10.557,0-19.125,8.568-19.125,19.125v57.375c0,10.557,8.568,19.125,19.125,19.125

				c10.557,0,19.125-8.568,19.125-19.125V535.5C325.125,524.943,316.557,516.375,306,516.375z M481.797,454.754

				c-7.478-7.478-19.584-7.478-27.043,0c-7.478,7.479-7.478,19.584,0,27.043l40.564,40.564c7.478,7.478,19.584,7.478,27.043,0

				c7.459-7.479,7.478-19.584,0-27.043L481.797,454.754z M592.875,286.875H535.5c-10.557,0-19.125,8.568-19.125,19.125

				c0,10.557,8.568,19.125,19.125,19.125h57.375c10.557,0,19.125-8.568,19.125-19.125C612,295.443,603.432,286.875,592.875,286.875z

				 M306,133.76c-95.128,0-172.24,77.112-172.24,172.24S210.872,478.24,306,478.24S478.24,401.128,478.24,306

				S401.128,133.76,306,133.76z M306,439.837c-73.918,0-133.837-59.919-133.837-133.837S232.082,172.163,306,172.163

				S439.837,232.082,439.837,306S379.918,439.837,306,439.837z"></path>

        </g>

      </g>

    </g>

    <g></g>

    <g></g>

    <g></g>

    <g></g>

    <g></g>

    <g></g>

    <g></g>

    <g></g>

    <g></g>

    <g></g>

    <g></g>

    <g></g>

    <g></g>

    <g></g>

    <g></g>

  </symbol>

    <symbol version="1.1" xmlns="http://www.w3.org/2000/svg" xmlns:xlink="http://www.w3.org/1999/xlink" viewBox="0 0 16 16" id="uparrow">
    <path d="M0 8c0 4.4 3.6 8 8 8s8-3.6 8-8-3.6-8-8-8c-4.4 0-8 3.6-8 8zM9 9.6l1.8-1.8 1.4 1.4-4.2 4.2-4.2-4.2 1.4-1.4 1.8 1.8v-6.6h2v6.6z"></path>
  </symbol>

</svg>